<svg width="18" height="21" viewBox="0 0 18 21" fill="none" xmlns="http://www.w3.org/2000/svg">
<path d="M9.75 1.74658C9.75 1.33237 9.4142 0.996582 9 0.996582C8.5858 0.996582 8.25 1.33237 8.25 1.74658V2.99988H6.25C5.2835 2.99988 4.5 3.78338 4.5 4.74988V6.90427C6.01944 6.76658 7.5 7.94046 7.5 9.64788V20.2499C7.5 20.276 7.4994 20.302 7.4983 20.3279V20.9999H10.4983V19.7499H10.5V12.2499C10.5 10.7311 11.7312 9.49988 13.25 9.49988H13.5V4.74988C13.5 3.78338 12.7165 2.99988 11.75 2.99988H9.75V1.74658Z" fill="white"/>
<path d="M11.498 21H15.7497C16.7162 21 17.4997 20.2165 17.4997 19.25V12.25C17.4997 11.2835 16.7162 10.5 15.7497 10.5H13.2497C12.2832 10.5 11.4997 11.2835 11.4997 12.25V19.75H11.498V21Z" fill="white"/>
<path d="M6.5 19.7501H6.49829V20.3012L6.4982 20.3025V21.0001H5.75541H5.75H2.25C1.2835 21.0001 0.5 20.2166 0.5 19.2501V11.2897C0.5 10.7003 0.79674 10.1505 1.28945 9.82692L3.78945 8.18535C4.95318 7.4212 6.5 8.25597 6.5 9.64822V19.7501Z" fill="white"/>
</svg>
