<svg width="18" height="18" viewBox="0 0 18 18" fill="none" xmlns="http://www.w3.org/2000/svg">
<path d="M6.21967 3.28033C6.51256 3.57322 6.9874 3.57322 7.2803 3.28033L8 2.56066V8H2.56066L3.28033 7.2803C3.57322 6.9874 3.57322 6.51256 3.28033 6.21967C2.98744 5.92678 2.51256 5.92678 2.21967 6.21967L0.219668 8.2197C-0.0732225 8.5126 -0.0732225 8.9874 0.219668 9.2803L2.21967 11.2803C2.51256 11.5732 2.98744 11.5732 3.28033 11.2803C3.57322 10.9874 3.57322 10.5126 3.28033 10.2197L2.56066 9.5H8V14.9393L7.2803 14.2197C6.9874 13.9268 6.51256 13.9268 6.21967 14.2197C5.92678 14.5126 5.92678 14.9874 6.21967 15.2803L8.2197 17.2803C8.5126 17.5732 8.9874 17.5732 9.2803 17.2803L11.2803 15.2803C11.5732 14.9874 11.5732 14.5126 11.2803 14.2197C10.9874 13.9268 10.5126 13.9268 10.2197 14.2197L9.5 14.9393V9.5H14.9393L14.2197 10.2197C13.9268 10.5126 13.9268 10.9874 14.2197 11.2803C14.5126 11.5732 14.9874 11.5732 15.2803 11.2803L17.2803 9.2803C17.5732 8.9874 17.5732 8.5126 17.2803 8.2197L15.2803 6.21967C14.9874 5.92678 14.5126 5.92678 14.2197 6.21967C13.9268 6.51256 13.9268 6.9874 14.2197 7.2803L14.9393 8H9.5V2.56066L10.2197 3.28033C10.5126 3.57322 10.9874 3.57322 11.2803 3.28033C11.5732 2.98744 11.5732 2.51256 11.2803 2.21967L9.2803 0.219668C8.9874 -0.0732225 8.5126 -0.0732225 8.2197 0.219668L6.21967 2.21967C5.92678 2.51256 5.92678 2.98744 6.21967 3.28033Z" fill="white"/>
</svg>
