<svg width="20" height="17" viewBox="0 0 20 17" fill="none" xmlns="http://www.w3.org/2000/svg">
<path d="M7.875 8.5C8.91929 8.5 9.92081 8.08516 10.6592 7.34673C11.3977 6.60831 11.8125 5.60679 11.8125 4.5625C11.8125 3.51821 11.3977 2.51669 10.6592 1.77827C9.92081 1.03984 8.91929 0.625 7.875 0.625C6.83071 0.625 5.82919 1.03984 5.09077 1.77827C4.35234 2.51669 3.9375 3.51821 3.9375 4.5625C3.9375 5.60679 4.35234 6.60831 5.09077 7.34673C5.82919 8.08516 6.83071 8.5 7.875 8.5ZM10.5 4.5625C10.5 5.25869 10.2234 5.92637 9.73115 6.41866C9.23887 6.91094 8.57119 7.1875 7.875 7.1875C7.17881 7.1875 6.51113 6.91094 6.01884 6.41866C5.52656 5.92637 5.25 5.25869 5.25 4.5625C5.25 3.86631 5.52656 3.19863 6.01884 2.70634C6.51113 2.21406 7.17881 1.9375 7.875 1.9375C8.57119 1.9375 9.23887 2.21406 9.73115 2.70634C10.2234 3.19863 10.5 3.86631 10.5 4.5625ZM15.75 15.0625C15.75 16.375 14.4375 16.375 14.4375 16.375H1.3125C1.3125 16.375 0 16.375 0 15.0625C0 13.75 1.3125 9.8125 7.875 9.8125C14.4375 9.8125 15.75 13.75 15.75 15.0625ZM14.4375 15.0573C14.4362 14.7344 14.2354 13.7631 13.3455 12.8733C12.4897 12.0175 10.8793 11.125 7.875 11.125C4.86938 11.125 3.26025 12.0175 2.4045 12.8733C1.51463 13.7631 1.31512 14.7344 1.3125 15.0573H14.4375Z" fill="white"/>
<path d="M3.875 11L0.875 14.5L1.375 15.5H14.875L14.375 13L10.875 11H3.875Z" fill="white"/>
<circle cx="7.875" cy="4.5" r="3.5" fill="white"/>
<path d="M14.878 7.88C15.487 6.84209 15.7501 5.63731 15.629 4.44C15.45 2.656 14.454 1.079 12.826 0L11.721 1.666C12.84 2.408 13.521 3.465 13.639 4.64C13.6934 5.1861 13.6254 5.73746 13.44 6.25398C13.2546 6.77051 12.9563 7.23921 12.567 7.626L11.375 8.818L12.993 9.293C17.225 10.533 17.274 14.789 17.274 14.832H19.274C19.274 13.043 18.318 9.547 14.878 7.88Z" fill="white"/>
</svg>
