<svg width="16" height="15" viewBox="0 0 16 15" fill="none" xmlns="http://www.w3.org/2000/svg">
<path d="M13.9077 1.62483H13.3671V1.13178C13.3671 0.507861 12.7778 0 12.0527 0C11.327 0 10.7382 0.507861 10.7382 1.13178V1.62441H9.38929V1.13178C9.38929 0.507861 8.8 0 8.07483 0C7.34966 0 6.76037 0.507861 6.76037 1.13178V1.62441H5.41145V1.13178C5.41145 0.507861 4.82215 0 4.09698 0C3.37182 0 2.78252 0.507861 2.78252 1.13178V1.62441H2.09231C0.938831 1.62441 0 2.40925 0 3.37353V13.2509C0 14.2152 0.938831 15 2.09231 15H13.9077C15.0617 15 16 14.2152 16 13.2509V3.37353C16 2.40925 15.0612 1.62483 13.9077 1.62483ZM11.4767 1.13178C11.4767 0.848218 11.7351 0.617335 12.0527 0.617335C12.3707 0.617335 12.6287 0.848218 12.6287 1.13178V3.14635C12.6287 3.42991 12.3707 3.6608 12.0527 3.6608C11.7351 3.6608 11.4767 3.42991 11.4767 3.14635V1.13178ZM7.49883 1.13178C7.49883 0.848218 7.75729 0.617335 8.07483 0.617335C8.39237 0.617335 8.65083 0.848218 8.65083 1.13178V3.14635C8.65083 3.42991 8.39237 3.6608 8.07483 3.6608C7.75729 3.6608 7.49883 3.42991 7.49883 3.14635V1.13178V1.13178ZM3.52049 1.13178C3.52049 0.848218 3.77895 0.617335 4.09649 0.617335C4.41403 0.617335 4.67249 0.848218 4.67249 1.13178V3.14635C4.67249 3.42991 4.41403 3.6608 4.09649 3.6608C3.77895 3.6608 3.52049 3.42991 3.52049 3.14635V1.13178ZM14.7692 13.2513C14.7692 13.6484 14.3828 13.9715 13.9077 13.9715H2.09231C1.61723 13.9715 1.23077 13.6484 1.23077 13.2513V4.19705H14.7692V13.2513Z" fill="#797979"/>
</svg>
