<?xml version="1.0" encoding="utf-8"?>
<!-- Generator: Adobe Illustrator 24.0.2, SVG Export Plug-In . SVG Version: 6.00 Build 0)  -->
<svg version="1.1" id="Layer_1" xmlns="http://www.w3.org/2000/svg" xmlns:xlink="http://www.w3.org/1999/xlink" x="0px" y="0px"
	 viewBox="0 0 485 485" style="enable-background:new 0 0 485 485;" xml:space="preserve">
<style type="text/css">
	.st0{fill:#548B9C;}
</style>
<g>
	<path class="st0" d="M361.2,68.9c-14.7,0-28.4,5.7-38.8,16.1c-21.4,21.4-21.4,56.2,0,77.6c10.4,10.4,24.2,16.1,38.8,16.1
		s28.4-5.7,38.8-16.1c21.4-21.4,21.4-56.2,0-77.6C389.7,74.6,375.9,68.9,361.2,68.9z M378.8,141.4c-4.7,4.7-11,7.3-17.6,7.3
		s-12.9-2.6-17.6-7.3c-9.7-9.7-9.7-25.5,0-35.2c4.7-4.7,11-7.3,17.6-7.3s12.9,2.6,17.6,7.3C388.5,115.9,388.5,131.7,378.8,141.4z"/>
	<path class="st0" d="M442,43C414.2,15.3,377.3,0,338.1,0c-39.2,0-76.1,15.3-103.9,43c-42.2,42.2-54.5,105.2-32.1,159.7L0.3,404.6
		l-0.2,80.3l144.6,0.2v-55.7h55.7v-55.7h55.7v-64.5l26.2-26.2c17.6,7.2,36.7,11,55.8,11c39.2,0,76.1-15.3,103.9-43
		C499.3,193.5,499.3,100.3,442,43z M420.7,229.6c-22.1,22.1-51.4,34.2-82.7,34.2c-18.1,0-36.2-4.3-52.4-12.3l-9.7-4.8l-50,50v46.9
		h-55.7v55.7h-55.7V455l-84.5-0.1l0.1-37.9l208.1-208.1l-4.8-9.7c-22.6-45.1-13.8-99.4,21.9-135C277.5,42.2,306.8,30,338.1,30
		s60.6,12.2,82.7,34.2C466.3,109.8,466.3,184,420.7,229.6z"/>
</g>
</svg>
