<svg width="23" height="24" viewBox="0 0 23 24" fill="none" xmlns="http://www.w3.org/2000/svg">
<g clip-path="url(#clip0_165_224)">
<path d="M20.125 21.6701H2.875C1.28992 21.6701 0 20.3618 0 18.754V17.296C0 16.7594 0.428375 16.324 0.958333 16.324H1.4375C2.23004 16.324 2.875 15.6698 2.875 14.8659C2.875 14.0621 2.23004 13.4079 1.4375 13.4079H0.958333C0.428375 13.4079 0 12.9724 0 12.4359V10.9778C0 9.37011 1.28992 8.06177 2.875 8.06177H20.125C21.7101 8.06177 23 9.37011 23 10.9778V12.4359C23 12.9724 22.5716 13.4079 22.0417 13.4079H21.5625C20.77 13.4079 20.125 14.0621 20.125 14.8659C20.125 15.2547 20.2745 15.6212 20.5457 15.8973C20.8169 16.1733 21.1772 16.324 21.5615 16.324H21.5625H22.0417C22.5716 16.324 23 16.7594 23 17.296V18.754C23 20.3618 21.7101 21.6701 20.125 21.6701ZM1.91667 18.233V18.754C1.91667 19.2896 2.346 19.7261 2.875 19.7261H20.125C20.654 19.7261 21.0833 19.2896 21.0833 18.754V18.233C20.3694 18.131 19.7091 17.7976 19.1906 17.2707C18.5572 16.6282 18.2083 15.7748 18.2083 14.8659C18.2083 13.1552 19.4599 11.735 21.0833 11.4988V10.9778C21.0833 10.4423 20.654 10.0058 20.125 10.0058H2.875C2.346 10.0058 1.91667 10.4423 1.91667 10.9778V11.4988C3.54008 11.735 4.79167 13.1552 4.79167 14.8659C4.79167 16.5767 3.54008 17.9968 1.91667 18.233Z" fill="white"/>
<path d="M8.62533 10.9778C8.09537 10.9778 7.66699 10.5424 7.66699 10.0058V9.03379C7.66699 8.49723 8.09537 8.06177 8.62533 8.06177C9.15528 8.06177 9.58366 8.49723 9.58366 9.03379V10.0058C9.58366 10.5424 9.15528 10.9778 8.62533 10.9778Z" fill="white"/>
<path d="M8.62533 17.0531C8.09537 17.0531 7.66699 16.6176 7.66699 16.081V13.651C7.66699 13.1144 8.09537 12.679 8.62533 12.679C9.15528 12.679 9.58366 13.1144 9.58366 13.651V16.081C9.58366 16.6176 9.15528 17.0531 8.62533 17.0531Z" fill="white"/>
<path d="M8.62533 21.6702C8.09537 21.6702 7.66699 21.2348 7.66699 20.6982V19.7262C7.66699 19.1896 8.09537 18.7542 8.62533 18.7542C9.15528 18.7542 9.58366 19.1896 9.58366 19.7262V20.6982C9.58366 21.2348 9.15528 21.6702 8.62533 21.6702Z" fill="white"/>
<path d="M20.6037 9.51987H2.39538C2.04751 9.51987 1.74946 9.26715 1.68813 8.92014C1.6268 8.57312 1.81846 8.23097 2.1443 8.10752L17.3818 2.33662C18.2433 2.01196 19.263 2.50089 19.5572 3.38446L21.2851 8.5566C21.3598 8.77919 21.3234 9.02414 21.1883 9.21563C21.0532 9.40712 20.8356 9.51987 20.6037 9.51987Z" fill="white"/>
</g>
<defs>
<clipPath id="clip0_165_224">
<rect width="23" height="23.3286" fill="white" transform="translate(0 0.285645)"/>
</clipPath>
</defs>
</svg>
