<?xml version="1.0" encoding="utf-8"?>
<!-- Generator: Adobe Illustrator 24.0.2, SVG Export Plug-In . SVG Version: 6.00 Build 0)  -->
<svg version="1.1" id="Слой_1" xmlns="http://www.w3.org/2000/svg" xmlns:xlink="http://www.w3.org/1999/xlink" x="0px" y="0px"
	 viewBox="0 0 82.7 82.7" style="enable-background:new 0 0 82.7 82.7;" xml:space="preserve">
<style type="text/css">
	.st0{fill:none;stroke:#FF0000;stroke-width:5;stroke-linecap:round;stroke-linejoin:round;stroke-miterlimit:10;}
	.st1{fill:none;stroke:#FF0000;stroke-width:3;stroke-linecap:round;stroke-linejoin:round;}
	.st2{fill:none;stroke:#FF0000;stroke-width:3;stroke-linecap:round;stroke-linejoin:round;stroke-dasharray:13.3139,13.3139;}
	.st3{fill:none;stroke:#FF0000;stroke-width:3;stroke-linecap:round;stroke-linejoin:round;stroke-dasharray:13.1299,13.1299;}
</style>
<path class="st0" d="M9.9,41.5c5.9,11.4,18.1,18.7,31.5,18.7c13.3,0,25.5-7.3,31.4-18.7v-0.2c-5.9-11.4-18.1-18.7-31.5-18.7
	c-13.3,0-25.5,7.3-31.4,18.7"/>
<circle class="st0" cx="41.3" cy="41.3" r="10.8"/>
<g>
	<g>
		<polyline class="st1" points="80.5,74.1 80.5,80.1 74.5,80.1 		"/>
		<line class="st2" x1="61.2" y1="80.1" x2="14.6" y2="80.1"/>
		<polyline class="st1" points="7.9,80.1 1.9,80.1 1.9,74.1 		"/>
		<line class="st3" x1="1.9" y1="60.9" x2="1.9" y2="15"/>
		<polyline class="st1" points="1.9,8.4 1.9,2.4 7.9,2.4 		"/>
		<line class="st2" x1="21.2" y1="2.4" x2="67.8" y2="2.4"/>
		<polyline class="st1" points="74.5,2.4 80.5,2.4 80.5,8.4 		"/>
		<line class="st3" x1="80.5" y1="21.6" x2="80.5" y2="67.5"/>
	</g>
</g>
</svg>
