<?xml version="1.0" encoding="utf-8"?>
<!-- Generator: Adobe Illustrator 24.0.2, SVG Export Plug-In . SVG Version: 6.00 Build 0)  -->
<svg version="1.1" id="Слой_1" xmlns="http://www.w3.org/2000/svg" xmlns:xlink="http://www.w3.org/1999/xlink" x="0px" y="0px"
	 viewBox="0 0 45.6 56.6" style="enable-background:new 0 0 45.6 56.6;" xml:space="preserve">
<style type="text/css">
	.st0{opacity:0.5;}
	.st1{fill:#F70000;}
</style>
<g class="st0">
	<path class="st1" d="M40.7,18.7h-3.4v-4.3C37.2,6.5,30.7,0,22.8,0C14.8,0,8.4,6.5,8.4,14.4v4.3H4.9c-2.7,0-4.9,2.2-4.9,4.9v28.1
		c0,2.7,2.2,5,4.9,5h35.7c2.7,0,5-2.2,5-5V23.6C45.6,20.9,43.4,18.7,40.7,18.7z M14.9,14.4c0-4.3,3.5-7.9,7.9-7.9
		c4.4,0,7.9,3.5,7.9,7.9v4.3H14.9V14.4z M25.5,43.7v7.2c0,0.3-0.3,0.5-0.6,0.5h-3.4c-0.3,0-0.5-0.2-0.5-0.5v-7.2
		c-2.3-0.9-4-3.2-4-5.9c0-3.5,2.8-6.3,6.3-6.3c3.5,0,6.3,2.8,6.3,6.3C29.5,40.5,27.8,42.8,25.5,43.7z"/>
</g>
</svg>
